# xmcd
#
# Track frame offsets:
#	150
#	12311
#	27501
#	42139
#	53949
#	68562
#	83448
#	94504
#	112115
#	126409
#	142441
#	153904
#	167637
#
# Disc length: 2449 seconds
#
# Revision: 1
# Processed by: cddbd v1.5.2PL0 Copyright (c) Steve Scherf et al.
# Submitted via: audiograbber 1.83.01
#
DISCID=ab098f0d
DTITLE=Søstrene Eikaas - Mot ukjent sted
DYEAR=1900
DGENRE=Country
TTITLE0=Lev ditt liv slik at du ingenting angrer
TTITLE1=Mot ukjent sted
TTITLE2=Ein nordmann sin draum
TTITLE3=Vi vil gi
TTITLE4=Verdens skjønneste blomst
TTITLE5=Vårens sang
TTITLE6=Crazy arms
TTITLE7=Det går en engel ved din side
TTITLE8=Langs hver en vei
TTITLE9=Frøkon Johansen
TTITLE10=Kansas city
TTITLE11=Skylden må vi dele begge to
TTITLE12=Fadderi faddera
EXTD=
EXTT0=
EXTT1=
EXTT2=
EXTT3=
EXTT4=
EXTT5=
EXTT6=
EXTT7=
EXTT8=
EXTT9=
EXTT10=
EXTT11=
EXTT12=
PLAYORDER=
